<?xml version="1.0" standalone="no"?>
<!DOCTYPE svg PUBLIC "-//W3C//DTD SVG 20010904//EN"
 "http://www.w3.org/TR/2001/REC-SVG-20010904/DTD/svg10.dtd">
<svg version="1.0" xmlns="http://www.w3.org/2000/svg"
 width="719.000000pt" height="718.000000pt" viewBox="0 0 719.000000 718.000000"
 preserveAspectRatio="xMidYMid meet">

<g transform="translate(0.000000,718.000000) scale(0.100000,-0.100000)"
fill="#000000" stroke="none">
<path d="M2618 6700 c-219 -25 -435 -78 -623 -151 -727 -285 -1268 -899 -1453
-1650 -57 -228 -67 -319 -66 -589 1 -219 3 -261 27 -390 94 -523 333 -975 701
-1327 373 -357 808 -567 1341 -649 150 -22 489 -23 640 0 449 68 832 234 1178
509 148 118 295 271 373 390 295 444 326 501 399 723 67 203 103 394 112 599
l6 140 -54 -53 c-62 -61 -163 -115 -246 -133 -75 -15 -183 -7 -253 20 -30 12
-58 21 -61 21 -3 0 -9 -30 -13 -67 -26 -249 -132 -535 -284 -763 -260 -389
-655 -656 -1122 -756 -144 -31 -403 -43 -560 -25 -685 79 -1266 550 -1484
1202 -176 525 -99 1097 209 1559 492 736 1462 996 2260 606 194 -95 350 -210
507 -375 128 -133 215 -258 304 -438 49 -97 80 -150 88 -146 6 4 25 17 41 29
51 38 136 72 211 85 86 14 195 -4 283 -48 54 -26 167 -127 189 -168 9 -17 49
19 381 344 204 200 371 365 371 367 0 2 -23 25 -52 51 -28 26 -64 68 -79 92
l-28 43 -356 -352 c-196 -194 -357 -351 -359 -349 -3 2 -23 53 -45 114 -212
562 -635 1029 -1175 1295 -231 113 -430 177 -690 221 -137 23 -487 34 -618 19z"/>
<path d="M6204 6375 c-79 -17 -128 -43 -190 -99 -129 -115 -169 -313 -96 -469
58 -125 155 -203 291 -233 63 -14 84 -15 143 -4 142 25 249 107 311 238 29 61
32 75 32 168 0 95 -2 103 -37 176 -60 119 -157 196 -284 223 -82 17 -91 17
-170 0z"/>
<path d="M3343 5426 c-104 -34 -204 -123 -251 -224 -24 -51 -27 -69 -27 -167
0 -103 2 -114 32 -177 58 -123 170 -207 306 -231 215 -36 429 120 469 344 29
166 -70 353 -230 431 -58 29 -77 33 -161 35 -61 2 -111 -2 -138 -11z"/>
<path d="M3947 4983 c-3 -10 -8 -35 -12 -57 -3 -21 -17 -63 -31 -94 -13 -30
-22 -57 -20 -60 7 -7 468 -152 483 -152 7 0 13 12 13 28 0 15 12 59 26 97 13
39 27 78 30 87 5 13 -5 20 -43 31 -26 8 -133 42 -238 76 -104 33 -193 61 -197
61 -4 0 -9 -8 -11 -17z"/>
<path d="M4745 4987 c-191 -64 -306 -231 -292 -425 17 -233 245 -416 467 -374
218 40 360 218 348 433 -9 150 -96 276 -236 342 -57 27 -81 32 -157 34 -55 2
-105 -2 -130 -10z"/>
<path d="M2720 4439 c-179 -187 -349 -366 -378 -399 l-52 -58 50 -37 c27 -20
64 -57 82 -81 17 -24 35 -44 39 -44 10 0 754 779 754 790 0 5 -19 22 -42 39
-24 17 -60 53 -80 80 -21 28 -40 50 -43 50 -3 0 -151 -153 -330 -340z"/>
<path d="M1980 3969 c-76 -13 -171 -61 -226 -117 -80 -79 -134 -228 -119 -326
31 -199 159 -333 353 -367 159 -28 338 64 420 218 155 292 -100 644 -428 592z"/>
<path d="M5005 3122 c-236 -369 -273 -420 -392 -539 -173 -175 -382 -334 -557
-424 -36 -19 -66 -37 -66 -40 0 -5 118 -59 130 -59 8 0 1000 994 1000 1001 0
9 -58 139 -62 139 -2 0 -25 -35 -53 -78z"/>
<path d="M5195 2998 c-34 -9 -105 -76 -512 -481 -260 -259 -481 -487 -490
-507 -24 -48 -23 -136 2 -179 34 -58 88 -94 149 -99 105 -9 91 -20 599 487
308 307 474 480 487 507 52 107 -3 234 -119 273 -40 13 -61 13 -116 -1z"/>
<path d="M5000 2175 l-455 -455 575 -574 c562 -560 577 -574 657 -614 114 -56
211 -76 332 -69 169 10 299 68 420 187 200 199 247 492 120 750 -42 84 -50 93
-613 658 -314 314 -573 572 -576 572 -3 0 -210 -205 -460 -455z"/>
</g>
</svg>
